<svg xmlns="http://www.w3.org/2000/svg" viewBox="0 0 24 30" x="0px" y="0px"><title>Cybercrime, internet bug, malware, threat, virus</title><g data-name="Layer 2"><path d="M6.18,18H4v2H7.61A6.09,6.09,0,0,0,12,22a6.09,6.09,0,0,0,4.39-2H20V18H17.82a10.43,10.43,0,0,0,1-3H22V13H19a11.26,11.26,0,0,0-.41-3H21V8H17.82a8.14,8.14,0,0,0-2.36-2.82l2.28-2.51L16.26,1.33,13.6,4.25a5.31,5.31,0,0,0-3.21,0L7.74,1.33,6.26,2.67,8.54,5.18A8.14,8.14,0,0,0,6.18,8H3v2H5.41A11.26,11.26,0,0,0,5,13H2v2H5.18A10.43,10.43,0,0,0,6.18,18ZM12,6c2.76,0,5,3.14,5,7s-2.24,7-5,7-5-3.14-5-7S9.24,6,12,6Z"/><rect x="9" y="8" width="2" height="2"/><rect x="13" y="8" width="2" height="2"/></g><text x="0" y="39" fill="#000000" font-size="5px" font-weight="bold" font-family="'Helvetica Neue', Helvetica, Arial-Unicode, Arial, Sans-serif">Created by Fauzan Adiima</text><text x="0" y="44" fill="#000000" font-size="5px" font-weight="bold" font-family="'Helvetica Neue', Helvetica, Arial-Unicode, Arial, Sans-serif">from the Noun Project</text></svg>