<svg xmlns="http://www.w3.org/2000/svg" xmlns:xlink="http://www.w3.org/1999/xlink" version="1.1" x="0px" y="0px" viewBox="0 0 100 125" enable-background="new 0 0 100 100" xml:space="preserve"><g><rect x="9.918" y="79.529" width="5.603" height="5.602"/><rect x="19.106" y="79.529" width="5.602" height="5.602"/><rect x="28.511" y="79.529" width="5.607" height="5.602"/><rect x="37.704" y="79.529" width="5.596" height="5.602"/><rect x="47.105" y="79.529" width="5.6" height="5.602"/><rect x="56.291" y="79.529" width="5.603" height="5.602"/><rect x="65.696" y="79.529" width="5.606" height="5.602"/><rect x="74.889" y="79.529" width="5.603" height="5.602"/><rect x="9.918" y="88.908" width="5.603" height="5.6"/><rect x="19.106" y="88.908" width="5.602" height="5.6"/><rect x="28.511" y="88.908" width="42.792" height="5.6"/><rect x="74.889" y="88.908" width="5.603" height="5.6"/><rect x="84.366" y="79.529" width="5.601" height="5.602"/><rect x="9.918" y="70.191" width="5.603" height="5.602"/><rect x="19.106" y="70.191" width="5.602" height="5.602"/><rect x="28.511" y="70.191" width="5.607" height="5.602"/><rect x="37.704" y="70.191" width="5.596" height="5.602"/><rect x="47.105" y="70.191" width="5.6" height="5.602"/><rect x="56.291" y="70.191" width="5.603" height="5.602"/><rect x="65.696" y="70.191" width="5.606" height="5.602"/><rect x="74.889" y="70.191" width="5.603" height="5.602"/><rect x="84.366" y="70.191" width="5.601" height="5.602"/><rect x="84.366" y="88.908" width="5.601" height="5.6"/></g><path d="M64.12,40.795c-0.545-0.471-1.246-0.624-1.913-0.539c0,0,0.021-11.695,0.021-11.772c0-6.537-5.303-11.833-11.833-11.833  c-6.526,0-11.815,5.296-11.815,11.833c0,0.123-0.04,11.748-0.04,11.748c-0.63-0.061-1.21,0.118-1.734,0.563  c-1.007,0.86-1.13,2.358-0.307,3.382l14.016,16.858l14.011-17.042C65.213,42.984,65.081,41.611,64.12,40.795z M42.188,30.73  c0-0.917,0.742-1.659,1.657-1.659h3.729c0.919,0,1.664,0.744,1.664,1.659c0,0.917-0.744,1.66-1.664,1.66h-3.729  C42.93,32.39,42.188,31.648,42.188,30.73z M50.411,42.404c-1.628,0-2.956-1.327-2.956-2.966c0-1.631,1.327-2.966,2.956-2.966  c1.638,0,2.966,1.331,2.966,2.966C53.377,41.077,52.049,42.404,50.411,42.404z M56.841,32.39h-3.735  c-0.917,0-1.654-0.747-1.654-1.66c0-0.917,0.737-1.659,1.654-1.659h3.735c0.919,0,1.655,0.744,1.655,1.659  C58.496,31.648,57.76,32.39,56.841,32.39z"/><g><path d="M90.05,30.739V14.565c0-3.818-2.373-6.193-6.195-6.193H16.177c-3.82,0-6.198,2.375-6.198,6.193v16.179   c-5.285,0.985-9.3,5.57-9.3,11.142c0,5.571,4.017,10.14,9.3,11.122v12.374H90.05V53.007c5.289-0.978,9.311-5.546,9.311-11.122   C99.36,36.309,95.342,31.72,90.05,30.739z M85.875,30.538h-4.98c-1.294,0-2.343,1.048-2.343,2.342c0,1.296,1.049,2.343,2.343,2.343   h4.98v1.349H75.651c-1.294,0-2.345,1.051-2.345,2.345s1.051,2.345,2.345,2.345h10.224v1.313h-7.607   c-1.292,0-2.343,1.051-2.343,2.345s1.051,2.345,2.343,2.345h7.607v1.315h-3.436c-1.296,0-2.345,1.049-2.345,2.341   c0,1.289,1.049,2.336,2.345,2.336h3.436v7.948h-7.431c-0.072-8.165-6.146-12.776-14.188-12.776H63.73L50.516,64.494L37.161,48.429   H36.54c-8.05,0-14.123,4.616-14.206,12.774h-8.179v-7.946h3.448c1.292,0,2.342-1.048,2.342-2.336c0-1.292-1.051-2.343-2.342-2.343   h-3.448v-1.313h7.616c1.296,0,2.345-1.051,2.345-2.345s-1.048-2.345-2.345-2.345h-7.616v-1.316h10.235   c1.296,0,2.345-1.048,2.345-2.345c0-1.294-1.049-2.342-2.345-2.342H14.154v-1.349h4.994c1.292,0,2.342-1.049,2.342-2.343   c0-1.296-1.051-2.345-2.342-2.345h-4.994V14.565c0-1.528,0.493-2.019,2.023-2.019h67.677c1.53,0,2.021,0.491,2.021,2.019V30.538   L85.875,30.538z"/></g><text x="0" y="115" fill="#000000" font-size="5px" font-weight="bold" font-family="'Helvetica Neue', Helvetica, Arial-Unicode, Arial, Sans-serif">Created by Luis Prado</text><text x="0" y="120" fill="#000000" font-size="5px" font-weight="bold" font-family="'Helvetica Neue', Helvetica, Arial-Unicode, Arial, Sans-serif">from the Noun Project</text></svg>